<?xml version="1.0" encoding="utf-8"?>
<!-- Generator: Adobe Illustrator 23.0.1, SVG Export Plug-In . SVG Version: 6.00 Build 0)  -->
<svg version="1.1" id="Layer_1" xmlns="http://www.w3.org/2000/svg" xmlns:xlink="http://www.w3.org/1999/xlink" x="0px" y="0px"
	 viewBox="0 0 78.6 77.9" style="enable-background:new 0 0 78.6 77.9;" xml:space="preserve">
<style type="text/css">
	.st0{fill:#231F20;}
</style>
<path class="st0" d="M61.3,21.5l-8.2,9.8L43.9,0L22.3,47.4l-6.2-6.6L0,77.8l78.6,0.1L61.3,21.5z M17,46.2l6.1,6.6L43.3,8.6l8.5,28.9
	l8.3-9.9l14.5,47.3l-70-0.1L17,46.2z"/>
<path class="st0" d="M61.9,55.3c0-1.2-3.1-1.3-3.8-1.3c0.7-0.5,1.2-1.1,1.8-1.8c0.2-0.3,0.8-1.1,0.4-1.7c-0.8-0.9-3.3,1.1-3.8,1.5
	c-0.8,0.6-1.4,1.3-2,2.1h-4.5l-1.1-1.9l2.3-3.9c1-0.1,1.9-0.3,2.9-0.6c0.6-0.2,3.7-1.4,3.3-2.5c-0.4-1.1-3.3-0.2-4.1,0.1
	c0.4-0.7,0.8-1.5,1-2.3c0.1-0.3,0.4-1.3-0.2-1.7c-0.6-0.4-1.3,0.4-1.6,0.6c-0.6,0.6-1.1,1.3-1.5,2c-0.1-0.8-0.7-3.8-1.9-3.6
	c-1.2,0.2-0.8,3.4-0.7,4.1c0.1,0.8,0.3,1.7,0.6,2.5l-2.4,4.1h-2.4l-2.4-3.9c0.4-0.9,0.6-1.9,0.8-2.8c0.1-0.6,0.5-3.9-0.7-4.1
	c-1.2-0.2-1.7,2.9-1.8,3.6c-0.4-0.7-2.1-3.2-3.1-2.6c-1,0.6,0.5,3.2,0.9,3.9c-0.8-0.3-3.7-1.1-4,0c-0.2,0.7,0.7,1.2,0.9,1.4
	c0.7,0.4,1.5,0.8,2.3,1.1c0.8,0.3,1.6,0.5,2.5,0.6l2.5,4L41,54.3h-4.5c-0.6-0.8-1.2-1.5-2-2.1c-1-0.9-2.5-1.8-3.3-1.8
	c-0.4,0-0.7,0.3-0.7,0.7c0,0,0,0,0,0.1c0.1,0.8,1.3,2,2.3,2.9c-0.8,0-3.8,0.1-3.8,1.3c0,1.2,3,1.3,3.8,1.3c-0.6,0.5-2.9,2.5-2.1,3.4
	c0.1,0.2,0.4,0.3,0.6,0.3c0.4,0,0.8-0.1,1.1-0.3c0.8-0.4,1.5-0.9,2.1-1.4c0.7-0.5,1.3-1.1,1.8-1.8h4.6l1.3,2.2l-2.5,4
	c-0.8,0.1-1.7,0.3-2.5,0.6c-0.8,0.3-1.6,0.6-2.3,1.1c-0.3,0.2-1.2,0.7-0.9,1.4c0.1,0.4,0.6,0.5,1.2,0.5c1-0.1,1.9-0.3,2.8-0.6
	c-0.7,1.1-1.4,2.7-1.2,3.5c0,0.2,0.2,0.4,0.3,0.5c0.1,0.1,0.2,0.1,0.3,0.1c1,0,2.4-2.1,2.8-2.7c0.2,1.3,0.6,3,1.3,3.5
	c0.1,0.1,0.3,0.2,0.4,0.2c0,0,0.1,0,0.1,0c0.2,0,0.4-0.1,0.5-0.3c0.5-0.6,0.4-2.4,0.3-3.8c-0.1-1-0.4-1.9-0.8-2.8l2.4-3.9h2.4
	l2.4,4.1c-0.3,0.8-0.5,1.6-0.6,2.5c-0.1,0.6-0.5,3.9,0.7,4.1c0,0,0.1,0,0.1,0c0.6,0,1-0.9,1.1-1.2c0.3-0.8,0.5-1.6,0.6-2.4
	c0.7,1.1,1.7,2.5,2.5,2.7c0.1,0,0.1,0,0.2,0c0.1,0,0.2,0,0.3-0.1c0.6-0.4,0.3-1.4,0.2-1.7c-0.3-0.8-0.6-1.6-1-2.3
	c0.9,0.3,1.9,0.6,2.9,0.6c0.6,0,1-0.1,1.2-0.5c0.4-1.2-2.6-2.3-3.3-2.5c-0.8-0.3-1.6-0.5-2.5-0.6c-0.1,0-0.2,0-0.4,0l-2.3-3.9
	l1.3-2.2h4.6c1.1,1.3,2.4,2.4,3.9,3.2c0.3,0.2,0.7,0.3,1.1,0.3c0.2,0,0.5-0.1,0.6-0.3c0.7-0.9-1.5-2.9-2.1-3.4
	C58.9,56.6,61.9,56.5,61.9,55.3z"/>
</svg>
